<svg width="32" height="32" viewBox="0 0 32 32" fill="none" xmlns="http://www.w3.org/2000/svg">
  <!-- Favicon - IPAM by BananaOps -->
  <!-- Matches the FontAwesome network-wired icon in the logo -->
  
  <!-- Rounded square background -->
  <rect x="2" y="2" width="28" height="28" rx="6" fill="#0EA5E9"/>
  
  <!-- FontAwesome network-wired icon recreation -->
  <!-- Top server/node -->
  <rect x="12" y="7" width="8" height="5" rx="1" fill="white"/>
  <rect x="13" y="8.5" width="2" height="0.8" rx="0.4" fill="#0EA5E9"/>
  <rect x="17" y="8.5" width="2" height="0.8" rx="0.4" fill="#0EA5E9"/>
  
  <!-- Vertical line from top -->
  <rect x="15.25" y="12" width="1.5" height="4" fill="white"/>
  
  <!-- Middle horizontal line/backbone -->
  <rect x="7" y="15.25" width="18" height="1.5" fill="white"/>
  
  <!-- Left vertical line -->
  <rect x="9.25" y="16.75" width="1.5" height="3.25" fill="white"/>
  
  <!-- Right vertical line -->
  <rect x="21.25" y="16.75" width="1.5" height="3.25" fill="white"/>
  
  <!-- Left bottom server/node -->
  <rect x="6" y="20" width="8" height="5" rx="1" fill="white"/>
  <rect x="7" y="21.5" width="2" height="0.8" rx="0.4" fill="#0EA5E9"/>
  <rect x="11" y="21.5" width="2" height="0.8" rx="0.4" fill="#0EA5E9"/>
  
  <!-- Right bottom server/node -->
  <rect x="18" y="20" width="8" height="5" rx="1" fill="white"/>
  <rect x="19" y="21.5" width="2" height="0.8" rx="0.4" fill="#0EA5E9"/>
  <rect x="23" y="21.5" width="2" height="0.8" rx="0.4" fill="#0EA5E9"/>
</svg>
